<?xml version="1.0" encoding="UTF-8" standalone="no"?>
<!DOCTYPE svg PUBLIC "-//W3C//DTD SVG 1.1//EN" "http://www.w3.org/Graphics/SVG/1.1/DTD/svg11.dtd">
<svg width="100%" height="100%" viewBox="0 0 1024 1024" version="1.1" xmlns="http://www.w3.org/2000/svg" xmlns:xlink="http://www.w3.org/1999/xlink" xml:space="preserve" xmlns:serif="http://www.serif.com/" style="fill-rule:evenodd;clip-rule:evenodd;stroke-linejoin:round;stroke-miterlimit:2;">
    <g id="Background" transform="matrix(1.5,0,0,1.5,-281.441677,-16.706795)">
        <g transform="matrix(0.729745,-0.372274,0.302951,0.593856,-144.742528,259.694653)">
            <path d="M543.063,159C602.852,159 749.933,299.285 749.933,299.285C749.933,299.285 768.126,439.857 768.126,552.5C768.126,769.679 716.645,965.721 592.43,965.721C468.214,965.721 318,769.679 318,552.5C318,521.372 338.177,501.082 340.114,472.618C341.717,449.068 324.435,416.973 330.069,394.859C334.594,377.099 340.818,359.743 347.969,343.119C360.44,314.125 383.129,299.854 397.136,277.042C413.693,250.077 425.176,214.923 445.797,197.599C475.243,172.862 508.234,159 543.063,159Z" style="fill:white;"/>
        </g>
        <path d="M491.253,554.811C492.738,554.851 492.638,554.717 494.084,554.328C494.516,554.259 494.747,555.121 495.18,555.053C496.093,554.909 496.803,554.165 497.638,553.768C508.175,548.752 544.312,535.59 554.081,530.041C559.938,526.714 480.447,487.052 460.452,386.51C453.423,351.17 456.467,349.969 452.279,345.451C454.928,331.58 446.083,310.98 454.643,289.557C464.154,275.667 469.05,277.726 483.221,268.097C492.36,261.887 509.537,236.219 517.423,231.738C523.726,236.704 523.168,237.221 531.703,246.303C549.842,265.604 543.878,237.154 532.154,222.771C529.722,219.787 522.498,210.924 496.856,190.079C494.303,188.004 476.031,173.151 460.435,170.97C436.157,167.576 433.233,175.99 418.935,163.144C419.782,162.383 422.47,159.968 432.54,158.989C462.292,156.098 476.758,161.912 492.301,171.798C503.657,179.021 534.083,207.252 536.223,209.811C541.166,215.718 535.365,200.244 547.869,179.739C565.387,151.012 588.953,159.58 622.516,161.048C653.601,162.408 655.331,171.146 671.54,185.456C674.187,187.793 719.636,200.767 720.24,200.915C720.265,200.927 761.798,215.96 763.515,215.581C786.766,210.445 792.235,203.759 826.645,239.36C869.607,283.81 867.323,287.897 864.83,303.566C862.222,319.958 823.153,380.705 820.064,385.179C812.242,396.508 801.888,389.577 803.486,397.503C803.887,399.49 804.319,401.471 804.691,403.464C813.467,450.478 826.815,464.527 828.076,472.539C829.696,482.83 789.823,542.433 730.245,576.073C697.347,594.648 632.029,625.597 544.513,628.916C542.649,627.961 542.681,627.893 542.5,627.884C539.304,627.725 539.754,628.78 539.492,629.065C534.459,629.093 510.676,629.781 480.443,625.99C471.486,624.867 464.71,624.679 461.681,618.745C458.797,613.097 469.519,585.981 474.958,576.744C486.677,556.843 493.962,559.397 491.253,554.811Z" style="fill:rgb(3,42,60);"/>
        <path d="M759.923,287.537C753.17,357.632 773.596,380.307 770.167,386.31C744.518,431.22 711.178,426.397 683.811,447.885C674.486,455.206 635.117,494.727 589.942,442.158C581.299,432.101 579.957,423.257 585.561,424.163C620.849,429.868 641.709,397.895 612.709,382.115C611.114,381.247 585.29,369.189 574.59,371.861C555.895,376.531 552.958,401.158 571.57,417.417C576.093,421.369 572.944,422.464 573.358,428.514C573.574,431.659 569.389,430.419 561.6,431.988C527.952,438.767 541.343,397.181 558.911,369.763C569.699,352.925 573.23,353.84 573.267,337.502C573.349,300.636 575.456,297.735 591.47,252.488C594.088,245.091 632.463,184.825 655.531,190.388C659.958,191.456 659.445,192.986 709.489,208.535C758.114,223.643 761.449,228.971 768.723,225.937C791.417,216.469 796.815,222.588 834.254,262.723C858.29,288.489 859.423,293.13 846.744,318.617C844.537,323.053 815.091,380.063 807.48,382.436C796.914,385.73 784.533,358.462 783.393,339.504C782.444,323.727 788.449,236.325 777.447,232.654C772.873,231.129 769.785,231.841 765.131,252.425C763.013,261.793 760.262,284.718 759.923,287.537Z" style="fill:rgb(26,53,69);"/>
        <path d="M331.45,138.975C396.691,81.722 461.646,72.031 527.471,76.917C560.538,79.372 629.585,96.852 682.88,152.134C686.292,155.673 710.428,180.709 720.24,200.915C719.636,200.767 674.187,187.793 671.54,185.456C655.331,171.146 653.601,162.408 622.516,161.048C588.953,159.58 565.387,151.012 547.869,179.739C535.365,200.244 541.166,215.718 536.223,209.811C534.083,207.252 503.657,179.021 492.301,171.798C476.758,161.912 462.292,156.098 432.54,158.989C422.47,159.968 419.782,162.383 418.935,163.144C418.758,163.064 417.112,162.326 416.727,162.124C390.544,148.372 367.118,148.523 345.499,148.497C344.985,145.209 343.123,144.688 331.45,138.975Z" style="fill:rgb(121,196,191);"/>
        <path d="M461.927,306.511C463.376,292.033 464.474,291.169 481.212,282.005C501.012,271.163 502.868,260.51 516.611,247.67C518.639,245.775 524.579,256.296 532.695,261.173C538.47,264.644 531.482,274.155 538.657,282.364C551.33,296.864 564.397,270.384 568.237,264.331C573.814,255.54 575.94,250.57 576.83,254.341C578.154,259.952 578.71,260.079 576.491,265.496C559.943,305.887 564.277,328.596 562.877,343.547C562.424,348.387 538.496,376.692 533.18,402.44C526.138,436.551 542.755,437.326 546.027,443.735C546.702,445.059 550.852,453.187 557.8,458.1C578.45,472.702 605.281,471.032 607.574,471.173C608.392,471.224 610.401,471.527 607.196,481.413C599.358,505.595 581.642,514.832 567.319,523.172C567.317,523.173 565.322,524.59 563.714,523.229C512.056,479.535 497.958,452.816 492.252,442.638C463.817,391.909 461.964,312.647 461.927,306.511Z" style="fill:rgb(121,195,190);"/>
        <path d="M494.084,554.328C492.638,554.717 492.738,554.851 491.253,554.811C399.292,486.231 438.153,412.311 452.279,345.451C456.467,349.969 453.423,351.17 460.452,386.51C480.447,487.052 559.938,526.714 554.081,530.041C544.312,535.59 508.175,548.752 497.638,553.768C496.803,554.165 496.093,554.909 495.18,555.053C494.747,555.121 494.516,554.259 494.084,554.328Z" style="fill:rgb(27,54,69);"/>
        <path d="M331.45,138.975C343.123,144.688 344.985,145.209 345.499,148.497C338.76,149.331 338.87,149.781 338.683,149.836C333.533,147.281 333.313,148.702 327.499,148.701C292.013,148.695 288.982,147.897 268.028,174.119C253.25,192.614 245.235,199.28 240.251,245.468C239.476,252.641 238.904,272.068 238.867,272.502C238.497,276.798 244.357,271.091 264.719,261.947C267.806,260.561 267.879,261.516 270.562,263.59C247.982,278.578 225.538,282.758 218.696,335.525C213.872,372.728 219.894,387.818 243.612,400.304C270.656,414.541 299.327,410.58 304.144,412.882C307.078,422.013 275.867,418.619 275.044,421.324C274.939,421.67 276.255,454.223 267.843,480.612C266.017,486.342 262.741,485.584 260.596,485.252C257.875,483.52 257.199,482.865 257.157,478.478C266.362,450.353 264.434,419.443 263.261,418.912C259.509,417.215 249.254,416.905 232.215,405.913C232.011,405.782 232.019,405.804 229.564,404.445C215.005,391.54 203.838,387.237 206.962,339.534C209.102,306.848 225.572,285.091 227.699,275.554C231.08,260.392 228.433,232.996 237.033,210.413C237.108,210.215 237.137,207.293 234.391,210.366C212.511,234.848 179.309,234.224 196.921,197.694C207.172,176.432 233.498,151.731 260.468,143.407C272.337,139.744 307.163,131.844 331.45,138.975Z" style="fill:rgb(3,42,60);"/>
        <path d="M324.342,412.315C325.41,411.645 326.478,410.974 327.545,410.304C358.326,415.562 396.151,381.087 396.893,370.445C412.798,366.116 435.509,344.876 439.287,346.912C442.239,348.503 443.824,351.182 420.092,384.179C357.311,471.472 268.68,498.309 261.823,487.5C261.714,487.327 261.732,487.333 260.596,485.252C262.741,485.584 266.017,486.342 267.843,480.612C276.255,454.223 274.939,421.67 275.044,421.324C275.867,418.619 307.078,422.013 304.144,412.882C314.278,412.042 314.23,411.232 324.342,412.315Z" style="fill:rgb(230,226,221);"/>
        <path d="M396.893,370.445C396.151,381.087 358.326,415.562 327.545,410.304C327.227,410.23 316.335,408.805 302.685,400.208C268.874,378.914 269.195,374.873 243.276,382.049C231.378,385.344 218.627,361.494 221.493,362.35C233.849,366.037 233.776,381.185 255.363,365.174C256.311,364.471 256.676,364.476 256.743,350.488C256.764,346.199 246.633,345.998 238.187,330.677C233.716,322.567 222.913,279.842 272.526,285.269C330.757,291.64 317.257,333.927 292.318,347.153C276.351,355.621 268.939,349.656 268.781,354.518C268.506,362.948 268.136,366.063 270.637,367.136C293.9,377.114 301.758,387.86 317.67,395.11C321.646,396.921 342.543,406.443 371.169,384.093C384.393,373.768 392.205,356.256 396.893,370.445Z" style="fill:rgb(3,42,60);"/>
        <path d="M338.683,149.836C301.023,186.438 332.853,222.129 270.562,263.59C267.879,261.516 267.806,260.561 264.719,261.947C244.357,271.091 238.497,276.798 238.867,272.502C238.904,272.068 239.476,252.641 240.251,245.468C245.235,199.28 253.25,192.614 268.028,174.119C288.982,147.897 292.013,148.695 327.499,148.701C333.313,148.702 333.533,147.281 338.683,149.836Z" style="fill:rgb(26,53,69);"/>
        <path d="M796.768,414.939C796.793,414.966 797.896,414.951 797.946,416.22C798.235,423.451 802.994,435.917 801.154,438.247C785.049,458.636 765.335,476.823 742.305,490.176C693.36,518.554 648.674,514.416 626.797,500.06C612.648,490.776 617.018,487.312 617.98,484.687C619.566,480.357 633.228,492.759 665.502,493.07C710.052,493.501 762.299,465.49 796.768,414.939Z" style="fill:rgb(214,87,75);"/>
        <g transform="matrix(1.010812,0,0,1,-349.332953,-48.138782)">
            <path d="M796.768,414.939C796.793,414.966 797.896,414.951 797.946,416.22C798.235,423.451 802.994,435.917 801.154,438.247C785.049,458.636 765.335,476.823 742.305,490.176C693.36,518.554 648.674,514.416 626.797,500.06C612.648,490.776 617.018,487.312 617.98,484.687C619.566,480.357 633.228,492.759 665.502,493.07C710.052,493.501 762.299,465.49 796.768,414.939Z" style="fill:rgb(208,75,214);"/>
        </g>
        <path d="M626.463,171.834C627.724,172.017 648.722,175.05 641.62,176.71C623.277,180.997 598.26,198.544 586.032,215.134C575.248,229.766 549.955,275.449 546.704,274.028C542.525,272.201 550.349,258.501 549.235,227.51C549.029,221.794 546.253,201.676 559.073,182.241C569.688,166.15 580.842,169.087 616.488,170.983C617.288,171.025 617.227,171.046 626.463,171.834Z" style="fill:rgb(26,53,69);"/>
        <path d="M517.423,231.738C509.537,236.219 492.36,261.887 483.221,268.097C469.05,277.726 464.154,275.667 454.643,289.557C454.392,288.989 453.362,289.067 453.111,288.5C452.256,286.57 453.263,286.57 453.193,284.502C453.177,284.057 452.977,269.774 452.959,268.493C452.369,226.487 446.122,214.917 454.796,209.946C473.877,199.011 474.617,200.737 477.462,200.854C485.333,201.179 515.203,229.091 517.423,231.738Z" style="fill:rgb(254,163,153);"/>
        <path d="M229.564,404.445C232.019,405.804 232.011,405.782 232.215,405.913C249.254,416.905 259.509,417.215 263.261,418.912C264.434,419.443 266.362,450.353 257.157,478.478C243.6,456.948 230.322,417.345 229.026,406.64C228.881,405.438 229.289,405.566 229.564,404.445Z" style="fill:rgb(120,195,191);"/>
        <path d="M358.393,246.032C345.229,258.869 357.26,221.706 380.544,227.324C403.771,232.929 403.904,268.978 393.552,264.397C392.218,263.807 392.515,263.547 391.853,262.204C391.984,261.866 394.787,254.639 391.743,257.679C391.524,257.897 391.854,257.992 390.345,261.277C389.524,262.511 388.703,263.745 387.881,264.979C387.297,264.834 387.084,263.96 386.5,263.815C386.116,263.719 385.832,264.259 385.453,264.377C369.377,269.375 358.659,243.737 374.373,238.203C378.033,236.915 380.011,238.304 381.457,238.284C384.692,238.241 380.788,234.607 374.527,235.943C364.122,238.164 360.388,244.02 358.393,246.032Z" style="fill:rgb(3,42,60);"/>
        <path d="M718.318,322.488C715.771,318.41 696.737,314.046 691.565,331.516C690.816,331.899 690.249,332.585 689.5,332.967C683.153,336.21 684.047,320.543 696.68,313.832C723.974,299.334 736.702,340.605 725.495,340.691C722.603,340.714 723.396,342.009 721.414,344.168C720.408,345.057 716.646,348.595 711.557,348.004C692.25,345.758 697.29,316.619 717.491,323.248C717.767,322.994 718.043,322.741 718.318,322.488Z" style="fill:rgb(3,43,60);"/>
        <path d="M590.874,282.797C578.192,279.91 597.812,265.598 609.428,271.641C630.332,282.517 614.031,312.883 608.036,304.745C607.418,303.905 607.37,304.093 606.667,303.406C605.651,303.009 592.404,300.272 597.279,287.415C600.307,279.429 608.436,281.143 609.503,281.368C614.015,282.319 609.601,277.367 601.493,277.217C595.826,277.112 591.505,282.073 590.874,282.797Z" style="fill:rgb(2,42,60);"/>
        <path d="M253.873,228.67C249.965,228.428 248.74,228.343 249.365,224.484C252.908,202.623 288.112,206.671 282.183,235.303L281.511,236.522C279.418,238.422 279.909,240.317 279.165,241.203C278.245,242.299 276.915,242.235 274.261,241.598C272.507,239.993 263.469,242.527 261.317,232.538C258.976,221.672 267.488,220.847 268.592,220.74C280.399,219.596 266.728,218.723 266.498,218.742C256.575,219.551 254.07,228.271 253.873,228.67Z" style="fill:rgb(2,42,60);"/>
        <path d="M718.318,322.488C718.043,322.741 717.767,322.994 717.491,323.248C697.29,316.619 692.25,345.758 711.557,348.004C716.646,348.595 720.408,345.057 721.414,344.168C721.813,344.831 723.252,345.542 719.443,348.443C709.671,355.884 690.061,352.718 691.565,331.516C696.737,314.046 715.771,318.41 718.318,322.488Z" style="fill:rgb(100,111,132);"/>
        <path d="M573.564,439.899C577.312,439.709 576.999,440.726 579.116,443.772C580.026,445.08 585.989,453.66 592.886,458.156C601.186,463.567 568.673,457.955 557.809,444.304C555.757,441.725 564.15,441.439 573.564,439.899Z" style="fill:rgb(26,53,69);"/>
        <path d="M358.393,246.032C360.388,244.02 364.122,238.164 374.527,235.943C380.788,234.607 384.692,238.241 381.457,238.284C380.011,238.304 378.033,236.915 374.373,238.203C358.659,243.737 369.377,269.375 385.453,264.377C385.832,264.259 386.116,263.719 386.5,263.815C387.084,263.96 387.297,264.834 387.881,264.979C374.093,276.617 357.072,260.821 358.862,248.369C359.048,247.071 358.868,247.169 358.393,246.032Z" style="fill:rgb(97,108,130);"/>
        <path d="M590.874,282.797C591.505,282.073 595.826,277.112 601.493,277.217C609.601,277.367 614.015,282.319 609.503,281.368C608.436,281.143 600.307,279.429 597.279,287.415C592.404,300.272 605.651,303.009 606.667,303.406C603.517,307.386 595.059,303.232 592.55,300.454C586.377,293.621 590.33,284.107 590.874,282.797Z" style="fill:rgb(101,111,132);"/>
        <path d="M253.873,228.67C254.07,228.271 256.575,219.551 266.498,218.742C266.728,218.723 280.399,219.596 268.592,220.74C267.488,220.847 258.976,221.672 261.317,232.538C263.469,242.527 272.507,239.993 274.261,241.598C269.512,247.864 252.232,245.071 253.873,228.67Z" style="fill:rgb(101,111,132);"/>
        <path d="M390.345,261.277C391.854,257.992 391.524,257.897 391.743,257.679C394.787,254.639 391.984,261.866 391.853,262.204C391.35,261.895 390.848,261.586 390.345,261.277Z" style="fill:rgb(110,127,136);"/>
        <path d="M539.492,629.065C539.754,628.78 539.304,627.725 542.5,627.884C542.681,627.893 542.649,627.961 544.513,628.916C542.84,628.966 541.166,629.015 539.492,629.065Z" style="fill:rgb(76,96,108);"/>
    </g>
    <g id="Background1" serif:id="Background" transform="matrix(0.769581,0,0,0.769581,85.456311,302.284075)">
        <g>
            <clipPath id="_clip1">
                <ellipse cx="545.513" cy="272.507" rx="587.402" ry="539.241"/>
            </clipPath>
            <g clip-path="url(#_clip1)">
                <g transform="matrix(1.299409,0,0,1.299409,-111.042708,-392.790674)">
                    <g id="_Image2_" serif:id="_Image2" transform="matrix(1,0,0,1,174.193,499.469)">
                        <path d="M337.447,18.508C334.949,20.437 323.156,25.08 297.752,60.672C290.379,71.003 292.446,72.742 302.836,88.273C319.094,112.575 319.05,112.584 320.711,114.505C321.446,128.961 336.46,163.799 322.277,192.388C308.358,220.444 302.096,223.12 310.874,247.369C325.543,287.891 328.827,291.516 292.056,370.299C278.661,398.998 274.261,410.729 268.442,424.01C263.893,423.83 264.058,423.148 259.467,422.863C257.758,422.757 258.047,422.064 256.431,421.862C231.415,418.736 231.753,417.31 223.482,415.991C219.161,415.422 205.771,411.932 204.054,410.957L194.427,408.839C182.407,403.582 166.587,403.118 109.371,374.739C109.538,373.65 110.751,374.615 110.921,373.5C111.023,372.837 110.83,372.855 110.323,368.519C108.573,353.564 109.129,353.595 108.195,335.521C107.859,329.02 104.76,331.484 98.555,333.679C90.572,336.503 101.38,318.834 102.496,307.5C103.483,297.478 83.104,312.075 86.559,302.519C90.992,290.255 104.513,274.473 86.515,274.918C70.267,275.319 95.868,266.525 102.631,232.549C102.87,231.35 102.453,231.435 102.256,230.204C127.811,208.585 121.751,202.866 110.666,180.417C108.019,175.057 108.525,174.912 106.213,166.556C106.37,166.256 105.903,165.851 106.061,165.551C107.082,163.607 107.518,164.225 109.555,163.692C134.225,157.233 135.194,149.666 143.694,147.39C144.469,148.887 150.198,159.959 157.658,163.159C173.453,169.932 184.532,161.76 186.459,161.334C191.332,160.257 195.494,158.812 188.101,137.649C188.555,137.099 189.452,137.05 189.905,136.5C190.232,136.103 193.948,129.047 194.292,128.394C214.661,89.709 204.304,81.142 217.502,65.376C245.461,65.976 245.447,65.829 265.473,68.736C273.009,69.83 293.347,40.216 321.745,19.83C324.567,17.804 330.768,14.046 333.535,13.704C337.151,13.256 337.18,17.376 337.447,18.508Z" style="fill:rgb(250,246,241);"/>
                        <path d="M110.503,1.944C112.946,2.94 113.073,2.265 115.619,3.135C116.057,3.285 116.237,3.997 116.7,4.008C117.123,4.018 117.244,3.175 117.667,3.185C117.939,3.476 119.804,5.472 121.619,6.206C121.946,6.337 122.35,5.964 122.671,6.109C123.202,6.348 123.027,6.609 128.743,10.133C133.545,13.094 133.557,13.077 133.709,13.232C134.989,14.54 135.32,14.041 136.618,15.362C138.004,16.773 138.368,16.027 138.673,16.261C138.891,16.427 138.569,16.901 138.78,17.077C139.029,17.286 139.482,16.98 139.752,17.162C140.159,17.436 140.23,18.069 140.644,18.333C140.916,18.507 141.367,18.142 141.612,18.351C141.836,18.542 141.468,19.04 141.693,19.229C141.949,19.444 142.438,19.046 142.694,19.26C142.919,19.448 142.542,19.963 142.779,20.135C143.068,20.344 143.571,19.873 143.848,20.098C144.087,20.293 143.567,20.993 143.874,21.025C144.289,21.068 144.401,20.156 144.817,20.199C146.087,21.454 146.077,21.312 147.678,22.155C147.63,23.024 146.743,22.445 146.695,23.314C146.661,23.928 147.18,22.953 147.611,23.37C147.828,23.58 147.468,24.063 147.686,24.273C148.576,25.13 148.856,24.45 149.746,25.211C149.975,25.407 149.568,25.929 149.807,26.112C150.089,26.327 150.59,25.856 150.872,26.072C151.247,26.48 150.526,26.609 150.9,27.017C151.27,27.42 151.415,26.792 151.832,27.117C152.223,27.423 152.244,28.065 152.635,28.372C152.873,28.558 153.318,28.248 153.539,28.455C154.353,29.217 153.819,29.563 154.697,30.251C154.949,30.449 155.415,30.101 155.657,30.311C155.875,30.5 155.522,30.999 155.754,31.169C156.037,31.375 156.535,30.921 156.802,31.146C156.865,31.199 156.215,32.047 158.807,32.197C158.988,34.812 159.965,34.012 159.982,34.03C160.307,34.372 160.631,34.714 160.956,35.056C161.281,35.397 161.607,35.738 161.932,36.079C162.258,36.42 162.583,36.762 162.909,37.103C163.234,37.444 163.559,37.786 163.884,38.127C164.21,38.468 164.535,38.808 164.861,39.149C165.187,39.49 165.512,39.831 165.838,40.172C166.082,40.427 165.542,40.974 165.785,41.229C166.022,41.478 166.576,40.949 166.814,41.196C167.057,41.448 166.525,41.993 166.767,42.247C167.003,42.494 167.553,41.974 167.79,42.219C168.032,42.47 167.509,43.012 167.749,43.264C167.983,43.509 168.53,42.999 168.766,43.243C169.006,43.491 168.494,44.029 168.732,44.279C168.965,44.522 169.508,44.024 169.742,44.265C169.981,44.511 169.48,45.046 169.717,45.293C169.948,45.535 170.487,45.047 170.72,45.286C170.958,45.53 170.468,46.061 170.703,46.306C170.933,46.546 171.467,46.069 171.699,46.307C171.934,46.549 171.457,47.076 171.69,47.32C171.916,47.557 172.446,47.095 172.675,47.331C172.908,47.571 172.445,48.092 172.675,48.334C172.899,48.569 173.424,48.123 173.65,48.356C173.88,48.593 173.431,49.109 173.66,49.349C173.882,49.582 174.401,49.148 174.625,49.379C174.854,49.614 174.417,50.127 174.644,50.362C174.867,50.594 175.383,50.166 175.607,50.396C175.835,50.629 175.382,51.162 175.63,51.373C175.902,51.603 176.436,51.075 176.696,51.318C177.188,51.778 175.938,52.312 176.647,52.322C177.55,52.335 176.987,51.322 177.833,51.334C179.151,53.817 179.141,53.823 181.672,55.144C181.653,55.633 180.704,55.743 180.685,56.232C180.673,56.546 181.349,56.087 181.63,56.229C182.475,56.657 187.571,59.573 193.489,55.861C195.582,55.857 195.518,55.901 197.526,55.542C201.671,57.399 207.634,56.488 210.517,55.018C214.759,55.009 251.219,54.931 263.495,57.214C263.705,57.309 265.784,58.247 266.256,58.022C267.572,57.397 283.819,40.837 285.315,39.312C286.801,37.797 285.339,37.677 285.346,37.213C286.387,36.655 287.28,36.177 296.195,27.2C296.863,26.771 296.419,28.45 297.073,28.031C297.548,27.726 297.763,27.588 302.303,23.283C303.782,21.881 302.331,21.711 302.339,21.212C310.248,16.787 308.178,13.799 325.351,5.21C345.903,-5.07 348.163,17.394 348.165,17.525C348.507,42.463 346.986,42.351 347.091,44.509C347.291,48.664 340.826,80.543 340.793,80.633C339.788,83.43 339.268,85.987 339.171,86.461C335.902,102.509 330.099,115.292 331.427,118.534C332.429,120.981 331.571,121.087 332.407,123.543C336.38,135.219 335.026,135.545 335.423,136.535C336.406,138.981 335.432,139.167 336.414,141.541C337.867,145.048 338.205,155.238 338.41,156.545C338.332,156.833 338.863,157.07 338.785,157.358C338.781,157.373 337.802,158.084 337.831,159.487C338.067,170.786 337.508,170.861 338.788,173.642C338.193,175.317 338.16,175.298 338.146,175.451C336.606,192.176 329.284,199.144 317.323,225.427C315.07,230.38 318.486,235.776 326.69,260.422C329.845,269.901 329.152,270.057 329.319,270.573C330.899,275.429 331.251,282.363 331.319,282.573C333.441,289.085 331.009,294.53 330.969,296.503C330.793,305.189 329.044,304.845 327.993,310.55C324.987,326.869 294.513,387.253 279.668,424.637C277.433,424.062 277.349,422.286 272.518,424.469C271.16,424.316 269.801,424.163 268.442,424.01C274.261,410.729 278.661,398.998 292.056,370.299C328.827,291.516 325.543,287.891 310.874,247.369C302.096,223.12 308.358,220.444 322.277,192.388C336.46,163.799 321.446,128.961 320.711,114.505C321.271,112.476 321.209,112.575 321.793,110.583C323.897,103.414 342.17,41.145 337.447,18.508C337.18,17.376 337.151,13.256 333.535,13.704C330.768,14.046 324.567,17.804 321.745,19.83C293.347,40.216 273.009,69.83 265.473,68.736C245.447,65.829 245.461,65.976 217.502,65.376C208.554,65.138 188.075,66.569 185.52,66.747C176.826,67.355 176.619,65.552 167.88,56.15C164.528,52.543 140.909,27.131 121.24,15.999C113.267,11.487 109.13,9.346 108.147,18.444C103.138,64.808 113.283,92.362 116.899,109.429C118.423,116.627 104.248,149.044 106.213,166.556C108.525,174.912 108.019,175.057 110.666,180.417C121.751,202.866 127.811,208.585 102.256,230.204C89.498,238.702 89.643,238.745 76.721,246.851C25.757,278.824 22.101,289.726 9.596,302.69C9.42,302.604 7.395,301.615 7.395,301.615C7.186,301.419 7.46,300.966 7.254,300.767C6.445,299.984 6.207,300.478 5.354,299.652C5.146,299.451 5.424,298.995 5.215,298.795C4.351,297.972 4.107,298.472 3.206,297.646C3.391,297.277 2.871,296.787 3.055,296.418C3.235,296.06 7.008,292.938 7.199,290.193C7.518,289.866 7.836,289.538 8.155,289.211C8.534,289.068 10.582,288.293 12.342,286.358C12.538,286.142 12.296,285.708 12.496,285.497C13.279,284.67 13.552,285.122 14.283,284.306C15.063,283.435 14.539,283.174 15.323,282.337C15.528,282.119 16.019,282.473 16.217,282.249C16.432,282.006 16.039,281.515 16.26,281.278C16.47,281.053 16.978,281.447 17.182,281.216C17.403,280.966 16.97,280.461 17.196,280.217C17.411,279.985 17.935,280.419 18.144,280.181C18.37,279.923 17.898,279.405 18.13,279.153C18.349,278.914 18.886,279.38 19.103,279.139C19.207,279.022 19.109,278.994 19.189,277.189C20.998,277.112 21.026,277.209 21.143,277.106C21.384,276.891 20.924,276.355 21.162,276.137C21.414,275.906 21.93,276.372 22.189,276.147C22.425,275.942 22.001,275.421 22.232,275.209C22.477,274.984 22.978,275.409 23.229,275.192C23.459,274.992 23.078,274.489 23.301,274.282C23.536,274.064 24.021,274.443 24.263,274.232C24.486,274.038 24.15,273.554 24.365,273.352C24.592,273.14 25.06,273.473 25.293,273.267C25.508,273.077 25.214,272.613 25.423,272.416C26.241,271.647 26.481,272.115 27.351,271.331C29.286,269.588 30.066,267.533 30.21,267.155C30.537,266.836 30.864,266.517 31.191,266.199C31.45,266.183 32.06,266.148 34.27,265.18C35.281,264.737 35.289,264.376 35.292,264.266C35.311,263.451 34.296,264.041 34.317,263.166C34.944,262.831 35.571,262.495 36.198,262.16C39.633,262.104 39.034,260.759 39.437,260.417C39.571,260.303 39.578,260.399 41.28,259.218C54.683,249.922 54.448,249.75 68.411,241.368C68.943,241.048 77.711,234.985 80.262,234.055C80.345,234.024 87.199,229.139 89.275,228.143C91.536,227.058 90.929,226.288 93.29,225.23L94.16,224.02C95.078,223.298 95.278,223.881 96.27,223.183C96.496,223.024 96.178,222.544 96.387,222.363C97.28,221.591 97.529,222.172 98.361,221.335C98.565,221.129 98.265,220.672 98.475,220.471C98.691,220.265 99.134,220.566 99.366,220.377C99.366,220.377 100.137,218.331 100.204,218.153C103.367,218.043 104.276,215.372 104.323,215.324C104.536,215.11 105.023,215.479 105.226,215.255C105.442,215.016 105.045,214.527 105.261,214.288C105.463,214.064 105.972,214.453 106.161,214.219C106.376,213.951 105.923,213.448 106.147,213.188C106.311,212.998 107.066,213.455 107.161,211.202C107.501,210.574 107.841,209.945 108.182,209.316C108.963,209.276 108.344,210.307 109.193,210.263C109.3,210.257 109.625,210.24 110.037,209.22C110.806,207.316 111.027,207.48 111.036,207.308C111.059,206.869 110.1,206.796 110.123,206.358C110.352,205.955 111.498,203.937 110.268,200.578C110.183,200.345 109.345,198.057 109.048,197.733C107.597,196.148 108.157,195.873 108.035,195.743C104.769,192.267 104.144,185.019 100.18,182.67C100.185,182.224 101.057,182.111 101.062,181.665C101.076,180.505 100.365,180.786 100.288,179.577C100.185,177.972 99.331,178.266 99.234,176.595C99.138,174.965 98.299,175.192 98.336,173.53C98.368,172.11 97.984,172.293 96.508,170.496C96.62,170.192 97.627,167.462 97.17,166.5C96.949,166.036 96.223,165.957 96.003,165.493C95.561,150.194 98.96,142.871 100.494,133.497C100.684,132.947 101.572,130.376 102.498,126.499C102.688,125.949 103.577,123.38 104.502,119.501C104.848,118.507 105.193,117.512 105.539,116.518C108.888,112.351 108.317,110.871 105.511,107.494C104.789,105.498 104.799,105.582 104.499,103.5C104.251,102.805 103.359,100.301 102.52,94.49C102.323,94.133 101.846,93.262 101.516,89.492C100.517,87.662 97.668,60.577 97.539,58.476C99.204,54.721 98.375,54.655 98.026,50.537C97.875,48.749 97.215,49.123 96.862,48.508C96.923,43.482 96.986,43.545 96.874,38.495C98.045,36.648 98.115,36.687 98.138,36.5C99.585,25.143 98.045,21.683 97.525,20.514L97.818,19.546C99.632,16.758 99.856,16.563 98.485,13.493C100.538,7.56 100.355,7.496 101.201,6.318C104.453,1.788 104.912,1.76 110.503,1.944Z" style="fill:rgb(10,50,66);"/>
                        <path d="M217.502,65.376C204.304,81.142 214.661,89.709 194.292,128.394C193.948,129.047 190.232,136.103 189.905,136.5C189.452,137.05 188.555,137.099 188.101,137.649C186.043,134.736 183.649,129.368 173.589,124.319C167.93,121.478 159.663,121.301 154.604,122.862C134.112,129.185 142.762,144.628 143.694,147.39C135.194,149.666 134.225,157.233 109.555,163.692C107.518,164.225 107.082,163.607 106.061,165.551C105.903,165.851 106.37,166.256 106.213,166.556C104.248,149.044 118.423,116.627 116.899,109.429C113.283,92.362 103.138,64.808 108.147,18.444C109.13,9.346 113.267,11.487 121.24,15.999C140.909,27.131 164.528,52.543 167.88,56.15C176.619,65.552 176.826,67.355 185.52,66.747C188.075,66.569 208.554,65.138 217.502,65.376Z" style="fill:rgb(253,196,152);"/>
                        <path d="M102.256,230.204C102.453,231.435 102.87,231.35 102.631,232.549C95.868,266.525 70.267,275.319 86.515,274.918C104.513,274.473 90.992,290.255 86.559,302.519C83.104,312.075 103.483,297.478 102.496,307.5C101.38,318.834 90.572,336.503 98.555,333.679C104.76,331.484 107.859,329.02 108.195,335.521C109.129,353.595 108.573,353.564 110.323,368.519C110.83,372.855 111.023,372.837 110.921,373.5C110.751,374.615 109.538,373.65 109.371,374.739C80.592,360.602 47.328,336.365 44.692,334.267C42.602,332.603 19.993,314.606 18.693,313.308C13.13,307.753 12.67,308.392 7.145,302.836C7.962,302.787 8.779,302.739 9.596,302.69C22.101,289.726 25.757,278.824 76.721,246.851C89.643,238.745 89.498,238.702 102.256,230.204Z" style="fill:rgb(253,206,152);"/>
                        <path d="M337.447,18.508C342.17,41.145 323.897,103.414 321.793,110.583C321.209,112.575 321.271,112.476 320.711,114.505C319.05,112.584 319.094,112.575 302.836,88.273C292.446,72.742 290.379,71.003 297.752,60.672C323.156,25.08 334.949,20.437 337.447,18.508Z" style="fill:rgb(253,183,153);"/>
                        <path d="M234.984,152.565C235.158,151.752 236.737,144.393 237.405,142.462C243.785,124.019 260.559,121.012 268.531,122.286C312.455,129.304 275.219,182.814 242.766,162.087C237.081,158.457 234.827,159.372 234.984,152.565Z" style="fill:rgb(9,49,65);"/>
                        <path d="M188.101,137.649C195.494,158.812 191.332,160.257 186.459,161.334C184.532,161.76 173.453,169.932 157.658,163.159C150.198,159.959 144.469,148.887 143.694,147.39C142.762,144.628 134.112,129.185 154.604,122.862C159.663,121.301 167.93,121.478 173.589,124.319C183.649,129.368 186.043,134.736 188.101,137.649Z" style="fill:rgb(9,48,65);"/>
                        <path d="M210.474,242.973C252.439,245.269 269.353,226.905 275.208,229.983C281.652,233.371 232.082,267.984 194.654,254.078C163.777,242.606 153.884,224.374 168.349,230.85C171.901,232.44 189.25,241.582 210.474,242.973Z" style="fill:rgb(232,227,220);"/>
                        <path d="M268.039,137.568C267.378,134.98 267.804,134.851 266.274,132.642C261.65,125.965 277.257,130.718 280.037,136.725C288.426,154.846 250.608,173.51 241.755,150.417C238.946,143.089 258.086,123.506 252.389,136.454C247.28,148.067 258.48,164.835 266.029,152.203C269.929,145.678 268.064,145.203 268.039,137.568Z" style="fill:rgb(137,190,172);"/>
                        <path d="M149.046,140.524C149.116,139.103 149.61,128.97 162.465,128.864C166.922,128.827 157.842,136.034 159.873,148.436C162.27,163.071 181.604,152.261 175.03,134.513C173.909,131.485 177.293,132.944 182.118,139.755C197.36,161.269 152.934,172.561 149.046,140.524Z" style="fill:rgb(138,190,172);"/>
                        <path d="M205.805,190.722C209.217,189.819 209.055,190.919 211.791,193.116C217.484,197.688 217.728,190.766 225.129,190.958C228.35,195.734 224.501,195.272 219.525,199.527C217.566,201.202 217.198,207.718 219.253,209.75C226.208,216.624 240.795,210.242 242.499,209.497C246.803,207.614 243.67,213.759 237.277,217.063C227.756,221.985 217.205,216.243 215.76,215.157C212.763,212.904 212.552,214.452 209.285,216.059C199.226,221.007 189.832,215.752 186.638,212.372C176.908,202.077 210.936,222.671 211.781,203.511C212.123,195.775 202.951,197.936 205.805,190.722Z" style="fill:rgb(9,48,65);"/>
                        <path d="M205.805,190.722C198.601,179.206 209.701,183.347 223.481,183.052C234.658,182.812 225.62,190.538 225.129,190.958C217.728,190.766 217.484,197.688 211.791,193.116C209.055,190.919 209.217,189.819 205.805,190.722Z" style="fill:rgb(252,182,153);"/>
                        <path d="M91.191,225.144L93.29,225.23C90.929,226.288 91.536,227.058 89.275,228.143C87.199,229.139 80.345,234.024 80.262,234.055C77.711,234.985 68.943,241.048 68.411,241.368C54.448,249.75 54.683,249.922 41.28,259.218C39.578,260.399 39.571,260.303 39.437,260.417C39.034,260.759 39.633,262.104 36.198,262.16C37.004,261.348 40.298,258.03 47.298,253.155C48.276,252.474 58.324,245.476 59.648,244.821C66.749,241.31 87.103,227.36 91.191,225.144Z" style="fill:rgb(112,135,145);"/>
                        <path d="M269.566,193.958C271.082,193.9 297.804,192.889 288.404,196.171C287.989,196.316 269.796,197.022 268.419,196.872C268.17,196.845 264.448,195.1 269.566,193.958Z" style="fill:rgb(232,229,223);"/>
                        <path d="M161.614,207.843C168.608,205.613 168.579,205.466 169.497,205.516C170.702,205.581 170.831,206.798 170.323,207.365C168.858,208.999 151.852,214.401 151.497,214.441C142,215.501 160.714,208.194 161.614,207.843Z" style="fill:rgb(232,229,223);"/>
                        <path d="M161.46,193.933C161.964,194.007 167.535,194.833 167.643,195.439C167.913,196.944 166.873,197.176 148.534,196.02C143.871,195.726 146.284,193.635 146.53,193.58C148.956,193.029 160.268,193.847 161.46,193.933Z" style="fill:rgb(232,229,223);"/>
                        <path d="M273.383,207.828C276.18,209.045 286.451,212.897 284.744,214.719C283.74,215.791 283.265,215.813 267.367,208.764C267.16,208.672 264.558,207.518 266.254,206.159C267.224,205.382 267.359,205.966 273.383,207.828Z" style="fill:rgb(232,230,223);"/>
                        <path d="M285.346,37.213C285.339,37.677 286.801,37.797 285.315,39.312C283.819,40.837 267.572,57.397 266.256,58.022C265.784,58.247 263.705,57.309 263.495,57.214C269.838,54.702 275.907,45.132 285.346,37.213Z" style="fill:rgb(43,93,104);"/>
                        <path d="M117.667,3.185C126.521,6.038 139.209,14.437 144.817,20.199C144.401,20.156 144.289,21.068 143.874,21.025C143.567,20.993 144.087,20.293 143.848,20.098C143.571,19.873 143.068,20.344 142.779,20.135C142.542,19.963 142.919,19.448 142.694,19.26C142.438,19.046 141.949,19.444 141.693,19.229C141.468,19.04 141.836,18.542 141.612,18.351C141.367,18.142 140.916,18.507 140.644,18.333C140.23,18.069 140.159,17.436 139.752,17.162C139.482,16.98 139.029,17.286 138.78,17.077C138.569,16.901 138.891,16.427 138.673,16.261C138.368,16.027 138.004,16.773 136.618,15.362C135.32,14.041 134.989,14.54 133.709,13.232C133.557,13.077 133.545,13.094 128.743,10.133C123.027,6.609 123.202,6.348 122.671,6.109C122.35,5.964 121.946,6.337 121.619,6.206C119.804,5.472 117.939,3.476 117.667,3.185Z" style="fill:rgb(108,132,142);"/>
                        <path d="M100.18,182.67C104.144,185.019 104.769,192.267 108.035,195.743C108.157,195.873 107.597,196.148 109.048,197.733C109.345,198.057 110.183,200.345 110.268,200.578C111.498,203.937 110.352,205.955 110.123,206.358C108.911,197.635 102.481,191.507 100.18,182.67Z" style="fill:rgb(174,187,192);"/>
                        <path d="M97.525,20.514C98.045,21.683 99.585,25.143 98.138,36.5C98.115,36.687 98.045,36.648 96.874,38.495C96.735,25.201 96.402,22.447 97.525,20.514Z" style="fill:rgb(161,176,182);"/>
                        <path d="M165.819,39.177C175.876,49.185 175.926,49.081 177.833,51.334C176.987,51.322 177.55,52.335 176.647,52.322C175.938,52.312 177.188,51.778 176.696,51.318C176.436,51.075 175.902,51.603 175.63,51.373C175.382,51.162 175.835,50.629 175.607,50.396C175.383,50.166 174.867,50.594 174.644,50.362C174.417,50.127 174.854,49.614 174.625,49.379C174.401,49.148 173.882,49.582 173.66,49.349C173.431,49.109 173.88,48.593 173.65,48.356C173.424,48.123 172.899,48.569 172.675,48.334C172.445,48.092 172.908,47.571 172.675,47.331C172.446,47.095 171.916,47.557 171.69,47.32C171.457,47.076 171.934,46.549 171.699,46.307C171.467,46.069 170.933,46.546 170.703,46.306C170.468,46.061 170.958,45.53 170.72,45.286C170.487,45.047 169.948,45.535 169.717,45.293C169.48,45.046 169.981,44.511 169.742,44.265C169.508,44.024 168.965,44.522 168.732,44.279C168.494,44.029 169.006,43.491 168.766,43.243C168.53,42.999 167.983,43.509 167.749,43.264C167.509,43.012 168.032,42.47 167.79,42.219C167.553,41.974 167.003,42.494 166.767,42.247C166.525,41.993 167.057,41.448 166.814,41.196C166.576,40.949 166.022,41.478 165.785,41.229C165.542,40.974 166.082,40.427 165.838,40.172L165.819,39.177Z" style="fill:rgb(118,127,129);fill-opacity:0.77;"/>
                        <path d="M19.189,277.189C19.109,278.994 19.207,279.022 19.103,279.139C18.886,279.38 18.349,278.914 18.13,279.153C17.898,279.405 18.37,279.923 18.144,280.181C17.935,280.419 17.411,279.985 17.196,280.217C16.97,280.461 17.403,280.966 17.182,281.216C16.978,281.447 16.47,281.053 16.26,281.278C16.039,281.515 16.432,282.006 16.217,282.249C16.019,282.473 15.528,282.119 15.323,282.337C14.539,283.174 15.063,283.435 14.283,284.306C13.552,285.122 13.279,284.67 12.496,285.497C12.296,285.708 12.538,286.142 12.342,286.358C10.582,288.293 8.534,289.068 8.155,289.211C10.395,284.936 10.938,285.392 19.189,277.189Z" style="fill:rgb(121,133,139);fill-opacity:0.78;"/>
                        <path d="M338.41,156.545C339.522,159.422 338.859,172.276 338.788,173.642C337.508,170.861 338.067,170.786 337.831,159.487C337.802,158.084 338.781,157.373 338.785,157.358C338.863,157.07 338.332,156.833 338.41,156.545Z" style="fill:rgb(97,164,164);"/>
                        <path d="M30.21,267.155C30.066,267.533 29.286,269.588 27.351,271.331C26.481,272.115 26.241,271.647 25.423,272.416C25.214,272.613 25.508,273.077 25.293,273.267C25.06,273.473 24.592,273.14 24.365,273.352C24.15,273.554 24.486,274.038 24.263,274.232C24.021,274.443 23.536,274.064 23.301,274.282C23.078,274.489 23.459,274.992 23.229,275.192C22.978,275.409 22.477,274.984 22.232,275.209C22.001,275.421 22.425,275.942 22.189,276.147C21.93,276.372 21.414,275.906 21.162,276.137C20.924,276.355 21.384,276.891 21.143,277.106C21.026,277.209 20.998,277.112 19.189,277.189C26.376,269.952 25.913,269.409 30.21,267.155Z" style="fill:rgb(120,132,138);fill-opacity:0.77;"/>
                        <path d="M181.672,55.144C187.58,55.743 187.518,55.765 193.489,55.861C187.571,59.573 182.475,56.657 181.63,56.229C181.349,56.087 180.673,56.546 180.685,56.232C180.704,55.743 181.653,55.633 181.672,55.144Z" style="fill:rgb(182,193,199);"/>
                        <path d="M197.526,55.542C199.674,54.242 205.169,54.671 210.517,55.018C207.634,56.488 201.671,57.399 197.526,55.542Z" style="fill:rgb(178,191,196);"/>
                        <path d="M96.508,170.496C97.984,172.293 98.368,172.11 98.336,173.53C98.299,175.192 99.138,174.965 99.234,176.595C99.331,178.266 100.185,177.972 100.288,179.577C100.365,180.786 101.076,180.505 101.062,181.665C101.057,182.111 100.185,182.224 100.18,182.67C99.662,181.795 97.118,177.497 96.508,170.496Z" style="fill:rgb(170,184,190);"/>
                        <path d="M96.862,48.508C97.215,49.123 97.875,48.749 98.026,50.537C98.375,54.655 99.204,54.721 97.539,58.476C96.208,56.265 96.838,49.92 96.862,48.508Z" style="fill:rgb(134,148,154);fill-opacity:0.86;"/>
                        <path d="M302.339,21.212C302.331,21.711 303.782,21.881 302.303,23.283C297.763,27.588 297.548,27.726 297.073,28.031C296.419,28.45 296.863,26.771 296.195,27.2C299.225,24.151 298.997,24.042 302.339,21.212Z" style="fill:rgb(75,133,136);fill-opacity:0.94;"/>
                        <path d="M150.827,25.19C151.799,26.152 151.708,26.092 151.799,26.152C155.76,28.738 155.545,28.884 158.807,32.197C156.215,32.047 156.865,31.199 156.802,31.146C156.535,30.921 156.037,31.375 155.754,31.169C155.522,30.999 155.875,30.5 155.657,30.311C155.415,30.101 154.949,30.449 154.697,30.251C153.819,29.563 154.353,29.217 153.539,28.455C153.318,28.248 152.873,28.558 152.635,28.372C152.244,28.065 152.223,27.423 151.832,27.117C151.415,26.792 151.27,27.42 150.9,27.017C150.526,26.609 151.247,26.48 150.872,26.072L150.827,25.19Z" style="fill:rgb(107,120,125);fill-opacity:0.74;"/>
                        <path d="M105.511,107.494C108.317,110.871 108.888,112.351 105.539,116.518C105.601,115.013 106.28,112.973 105.511,107.494Z" style="fill:rgb(114,124,126);fill-opacity:0.78;"/>
                        <path d="M7.199,290.193C7.008,292.938 3.235,296.06 3.055,296.418C2.871,296.787 3.391,297.277 3.206,297.646L3.159,298.826C0.357,295.606 3.015,294.314 7.199,290.193Z" style="fill:rgb(105,119,125);fill-opacity:0.75;"/>
                        <path d="M100.204,218.153C100.137,218.331 99.366,220.377 99.366,220.377C99.134,220.566 98.691,220.265 98.475,220.471C98.265,220.672 98.565,221.129 98.361,221.335C97.529,222.172 97.28,221.591 96.387,222.363C96.178,222.544 96.496,223.024 96.27,223.183C95.278,223.881 95.078,223.298 94.16,224.02L94.189,223.157C96.988,220.332 96.665,220.018 100.204,218.153Z" style="fill:rgb(122,135,140);fill-opacity:0.79;"/>
                        <path d="M107.161,211.202C107.066,213.455 106.311,212.998 106.147,213.188C105.923,213.448 106.376,213.951 106.161,214.219C105.972,214.453 105.463,214.064 105.261,214.288C105.045,214.527 105.442,215.016 105.226,215.255C105.023,215.479 104.536,215.11 104.323,215.324C104.276,215.372 103.367,218.043 100.204,218.153C103.248,215.153 106.607,211.761 107.161,211.202Z" style="fill:rgb(95,109,115);fill-opacity:0.71;"/>
                        <path d="M272.518,424.469C277.349,422.286 277.433,424.062 279.668,424.637C276.185,426.324 275.92,426.485 272.518,424.469Z" style="fill:rgb(166,176,181);fill-opacity:0.91;"/>
                        <path d="M3.206,297.646C4.107,298.472 4.351,297.972 5.215,298.795C5.424,298.995 5.146,299.451 5.354,299.652C6.207,300.478 6.445,299.984 7.254,300.767C7.46,300.966 7.186,301.419 7.395,301.615C7.395,301.615 9.42,302.604 9.596,302.69C8.779,302.739 7.962,302.787 7.145,302.836C5.191,300.857 3.479,299.146 3.159,298.826L3.206,297.646Z" style="fill:rgb(124,138,144);fill-opacity:0.84;"/>
                        <path d="M98.485,13.493C99.856,16.563 99.632,16.758 97.818,19.546C97.863,15.929 97.243,15.818 98.485,13.493Z" style="fill:rgb(127,141,147);fill-opacity:0.84;"/>
                        <path d="M110.503,1.944C113.087,2.053 113.269,0.949 117.667,3.185C117.244,3.175 117.123,4.018 116.7,4.008C116.237,3.997 116.057,3.285 115.619,3.135C113.073,2.265 112.946,2.94 110.503,1.944Z" style="fill:rgb(67,86,93);fill-opacity:0.7;"/>
                        <path d="M147.678,22.155C149.374,23.62 149.282,23.604 150.827,25.19L150.872,26.072C150.59,25.856 150.089,26.327 149.807,26.112C149.568,25.929 149.975,25.407 149.746,25.211C148.856,24.45 148.576,25.13 147.686,24.273C147.468,24.063 147.828,23.58 147.611,23.37C147.18,22.953 146.661,23.928 146.695,23.314C146.743,22.445 147.63,23.024 147.678,22.155Z" style="fill:rgb(119,133,138);fill-opacity:0.79;"/>
                        <path d="M96.003,165.493C96.223,165.957 96.949,166.036 97.17,166.5C97.627,167.462 96.62,170.192 96.508,170.496C95.639,168.049 95.828,168.072 96.003,165.493Z" style="fill:rgb(113,91,134);fill-opacity:0.81;"/>
                        <path d="M34.317,263.166C34.296,264.041 35.311,263.451 35.292,264.266C35.289,264.376 35.281,264.737 34.27,265.18C32.06,266.148 31.45,266.183 31.191,266.199C32.72,264.641 32.611,264.665 34.317,263.166Z" style="fill:rgb(94,110,116);fill-opacity:0.75;"/>
                        <path d="M110.123,206.358C110.1,206.796 111.059,206.869 111.036,207.308C111.027,207.48 110.806,207.316 110.037,209.22C109.625,210.24 109.3,210.257 109.193,210.263C108.344,210.307 108.963,209.276 108.182,209.316C109.079,208.277 109.084,208.292 109.151,208.194C109.747,207.332 109.5,207.259 110.123,206.358Z" style="fill:rgb(87,104,111);fill-opacity:0.75;"/>
                        <path d="M94.189,223.157L94.16,224.02L93.29,225.23L91.191,225.144C92.57,223.954 92.56,224.042 94.189,223.157Z" style="fill:rgb(96,109,114);fill-opacity:0.69;"/>
                        <path d="M164.817,38.18C165.151,38.512 165.485,38.845 165.819,39.177L165.838,40.172C165.512,39.831 165.187,39.49 164.861,39.149L164.817,38.18Z" style="fill:rgb(115,125,127);fill-opacity:0.78;"/>
                        <path d="M163.814,37.182C164.148,37.515 164.482,37.847 164.817,38.18L164.861,39.149C164.535,38.808 164.21,38.468 163.884,38.127L163.814,37.182Z" style="fill:rgb(111,121,123);fill-opacity:0.77;"/>
                        <path d="M162.811,36.185C163.146,36.518 163.48,36.85 163.814,37.182L163.884,38.127C163.559,37.786 163.234,37.444 162.909,37.103L162.811,36.185Z" style="fill:rgb(106,116,119);fill-opacity:0.75;"/>
                        <path d="M161.809,35.188C162.143,35.52 162.477,35.853 162.811,36.185L162.909,37.103C162.583,36.762 162.258,36.42 161.932,36.079L161.809,35.188Z" style="fill:rgb(100,111,115);fill-opacity:0.74;"/>
                        <path d="M160.806,34.19C161.14,34.523 161.475,34.855 161.809,35.188L161.932,36.079C161.607,35.738 161.281,35.397 160.956,35.056L160.806,34.19Z" style="fill:rgb(95,106,110);fill-opacity:0.73;"/>
                        <path d="M159.804,33.193C160.138,33.526 160.472,33.858 160.806,34.19L160.956,35.056C160.631,34.714 160.307,34.372 159.982,34.03L159.804,33.193Z" style="fill:rgb(89,101,105);fill-opacity:0.71;"/>
                        <path d="M158.807,32.197C159.139,32.529 159.472,32.861 159.804,33.193L159.982,34.03C159.965,34.012 158.988,34.812 158.807,32.197Z" style="fill:rgb(84,96,100);fill-opacity:0.7;"/>
                    </g>
                </g>
            </g>
        </g>
    </g>
</svg>
